{"title":"The Curious Case Of Benjamin Button.x264.AC3.Multi_Sub.mkv","uid":5427073,"size":1418613813,"categoryP":"video","categoryS":"movies","magnet":"?xt=urn:btih:f16547958bbef96c5a5c3e2e7174d817e66626cb&amp;dn=The+Curious+Case+Of+Benjamin+Button.x264.AC3.Multi_Sub.mkv&amp;tr=udp%3A%2F%2Ftracker.openbittorrent.com%3A80&amp;tr=udp%3A%2F%2Fopen.demonii.com%3A1337&amp;tr=udp%3A%2F%2Ftracker.coppersurfer.tk%3A6969&amp;tr=udp%3A%2F%2Fexodus.desync.com%3A6969","seeders":1,"leechers":0,"uploader":"Zen_Bud","files":-1,"time":1268293865,"description":"General\nComplete name                    : The Curious Case Of Benjamin Button.mkv\nFormat                           : Matroska\nFile size                        : 1.32 GiB\nDuration                         : 2h 46mn\nOverall bit rate                 : 1 139 Kbps\n\n\nVideo\nID                               : 1\nFormat                           : AVC\n\nDuration                         : 2h 46mn\nBit rate                         : 668 Kbps\nWidth                            : 718 pixels\nHeight                           : 356 pixels\nDisplay aspect ratio             : 2.35:1\nOriginal display aspect ratio    : 2.35:1\nFrame rate                       : 25.000 fps\nResolution                       : 8 bits\nColorimetry                      : 4:2:0\nScan type                        : Progressive\nBits/(Pixel*Frame)               : 0.105\nStream size                      : 794 MiB (59%)\nWriting library                  : x264 core 79\n\n\nAudio\nID                               : 2\nFormat                           : AC-3\nFormat/Info                      : Audio Coding 3\nCodec ID                         : A_AC3\nDuration                         : 2h 46mn\nBit rate mode                    : Constant\nBit rate                         : 448 Kbps\nChannel(s)                       : 6 channels\nChannel positions                : Front: L C R, Surround: L R, LFE\nSampling rate                    : 48.0 KHz\nStream size                      : 532 MiB (39%)\nLanguage                         : English\n\nText #1\nLanguage                         : English\n\nText #2\nLanguage                         : French\n\nText #3\nLanguage                         : Spanish\n\nText #4\nLanguage                         : Chinese\n\nText #5\nLanguage                         : Swedish\n\nText #6\nLanguage                         : Danish\n\nText #7\nLanguage                         : Russian\n\nMenu\n00:00:00.000                     : Chapter 1\n\n\n","torrent":{"xt":"urn:btih:f16547958bbef96c5a5c3e2e7174d817e66626cb","amp;dn":"The+Curious+Case+Of+Benjamin+Button.x264.AC3.Multi_Sub.mkv","amp;tr":["udp%3A%2F%2Ftracker.openbittorrent.com%3A80","udp%3A%2F%2Fopen.demonii.com%3A1337","udp%3A%2F%2Ftracker.coppersurfer.tk%3A6969","udp%3A%2F%2Fexodus.desync.com%3A6969"],"infoHash":"f16547958bbef96c5a5c3e2e7174d817e66626cb","infoHashBuffer":{"type":"Buffer","data":[241,101,71,149,139,190,249,108,90,92,62,46,113,116,216,23,230,102,38,203]},"announce":[],"urlList":[]}}